<svg width="100" height="100" viewBox="0 0 100 100" fill="none" xmlns="http://www.w3.org/2000/svg"><path d="M23.274 83.903c1.596 1.002 4.587 3.708 11.07.701 3.49-1.904 5.784-3.307 6.98-4.21l-.498.301.1-26.36-.2-36.382s-.698-5.212-4.587-7.718c-4.289-3.408-11.27-8.219-12.167-8.52-.798-.7-3.79-1.803-5.684 1.905l.1 73.066s.099.802.298 2.105c1.197 1.904 2.793 4.11 4.588 5.112z" fill="url(#paint0_linear_102_2)"/><path d="M70.246 62.755l-28.921 17.54c-1.297.901-3.49 2.305-7.081 4.209-6.383 3.007-9.374.3-11.07-.702-1.795-1.002-3.39-3.207-4.587-5.211.598 2.806 1.994 7.817 5.585 11.325 4.587 4.711 10.172 10.825 25.23 8.62 3.391-1.002 7.081-3.007 13.663-7.417 4.987-3.308 10.073-5.011 14.261-10.825 4.688-12.929-4.587-16.738-7.08-17.54z" fill="url(#paint1_linear_102_2)"/><path d="M80.817 54.035c-3.191-6.114-3.69-8.72-13.663-14.533-10.172-5.212-11.668-6.014-11.668-6.014s-2.493-2.105-4.887-1.904c-2.293 1.002-3.79 2.405-2.094 6.815a721.65 721.65 0 0 0 4.986 13.23s.998 5.112 5.087 6.816c7.08 2.305 11.668 4.21 11.668 4.21l-.1.1c2.493.801 11.768 4.51 7.18 17.64 1.496-2.005 2.793-4.61 3.99-7.818 1.495-5.613 2.194-8.42-.5-18.542z" fill="url(#paint2_linear_102_2)"/><defs><linearGradient id="paint0_linear_102_2" x1="10.121" y1="6.266" x2="45.133" y2="79.383" gradientUnits="userSpaceOnUse"><stop stop-color="#3BBDF5"/><stop offset="1" stop-color="#1B45D9"/></linearGradient><linearGradient id="paint1_linear_102_2" x1="18.727" y1="80.945" x2="78.701" y2="80.945" gradientUnits="userSpaceOnUse"><stop stop-color="#5AD9FE"/><stop offset=".51" stop-color="#43AAE1"/><stop offset="1" stop-color="#144AD5"/></linearGradient><linearGradient id="paint2_linear_102_2" x1="55.304" y1="46.425" x2="82.931" y2="67.615" gradientUnits="userSpaceOnUse"><stop stop-color="#3DC0FE"/><stop offset="1" stop-color="#61DDD5"/></linearGradient></defs></svg>