<svg class="icon" viewBox="0 0 1024 1024" xmlns="http://www.w3.org/2000/svg" width="32" height="32"><path d="M0 512a512 512 0 1 0 1024 0A512 512 0 1 0 0 512z" fill="#fff"/><path d="M389.796 899.326c4.142-6.214 8.285-12.428 8.285-14.499v-84.922c-128.419 26.927-155.345-53.852-155.345-53.852-20.713-53.853-51.781-68.352-51.781-68.352-41.426-28.998 4.142-28.998 4.142-28.998 45.568 4.143 70.423 47.64 70.423 47.64 41.425 70.422 107.705 49.71 134.632 39.353 4.142-28.997 16.57-49.71 28.998-62.138-103.564-12.427-211.27-51.781-211.27-227.838 0-49.71 18.642-91.136 47.64-124.276-4.143-12.428-20.713-57.995 4.142-122.204 0 0 39.354-12.428 126.347 47.639 37.283-10.357 76.637-14.5 115.991-14.5s78.708 6.215 115.99 14.5c89.065-60.067 126.348-47.64 126.348-47.64 24.855 64.21 10.356 109.777 4.142 122.205 28.998 33.14 47.64 72.494 47.64 124.276 0 176.057-107.706 215.41-211.27 227.838 16.57 14.5 31.07 41.426 31.07 84.922v126.347c0 4.143 2.07 8.285 8.284 14.499 6.214 8.285 4.143 22.784-4.142 28.998-4.143 2.07-8.285 4.142-12.428 4.142H406.366c-12.428 0-20.713-8.285-20.713-20.713 0-6.213 2.071-10.356 4.143-12.427z" fill="#161614"/></svg>